<svg width="153" height="98" viewBox="0 0 153 98" fill="none" xmlns="http://www.w3.org/2000/svg">
<path d="M4.49993 37.9997L5.87766 38.5929L4.49993 37.9997ZM89.5001 44.9997L90.5249 43.9043L89.5001 44.9997ZM98 74.5L97.1947 73.2345L98 74.5ZM109 11.5V10H108.961L108.922 10.002L109 11.5ZM152.061 12.5607C152.646 11.9749 152.646 11.0251 152.061 10.4393L142.515 0.893398C141.929 0.307611 140.979 0.307611 140.393 0.893398C139.808 1.47919 139.808 2.42893 140.393 3.01472L148.879 11.5L140.393 19.9853C139.808 20.5711 139.808 21.5208 140.393 22.1066C140.979 22.6924 141.929 22.6924 142.515 22.1066L152.061 12.5607ZM39.4999 96.4998L40.3419 95.2584C30.8284 88.8057 19.8787 79.7627 12.4895 69.6915C5.08164 59.5949 1.48039 48.806 5.87766 38.5929L4.49993 37.9997L3.12221 37.4066C-1.90003 49.0712 2.41538 61.0323 10.0707 71.4662C17.7448 81.9256 29.0048 91.1938 38.658 97.7411L39.4999 96.4998ZM4.49993 37.9997L5.87766 38.5929C9.57519 30.0051 15.5038 25.3474 22.5572 23.308C29.6855 21.2469 38.0775 21.8317 46.6288 24.0157C63.7493 28.3882 80.9019 39.0105 88.4754 46.0952L89.5001 44.9997L90.5249 43.9043C82.5982 36.4893 65.0007 25.6115 47.3711 21.109C38.5474 18.8555 29.5643 18.159 21.7239 20.426C13.8085 22.7147 7.17463 27.9944 3.12221 37.4066L4.49993 37.9997ZM89.5001 44.9997L88.4754 46.0952C95.1604 52.3487 99.7855 57.7621 101.48 62.3337C102.307 64.5668 102.392 66.488 101.78 68.1869C101.164 69.898 99.7619 71.6008 97.1947 73.2345L98 74.5L98.8053 75.7655C101.738 73.8992 103.694 71.727 104.603 69.2037C105.516 66.6682 105.295 63.9956 104.293 61.2913C102.327 55.9878 97.2026 50.151 90.5249 43.9043L89.5001 44.9997ZM98 74.5L97.1947 73.2345C95.3069 74.4358 92.9875 74.6504 90.3516 73.9231C87.6967 73.1906 84.8094 71.5184 81.9898 69.0949C76.3474 64.2451 71.2577 56.6292 69.0695 48.5638C66.8876 40.5221 67.6252 32.2228 73.3031 25.6861C79.0209 19.1035 90.0185 13.9881 109.078 12.998L109 11.5L108.922 10.002C89.4815 11.0119 77.5197 16.2571 71.0382 23.7188C64.5169 31.2265 63.8154 40.6555 66.1741 49.3494C68.5265 58.0195 73.957 66.1464 80.0343 71.37C83.0744 73.9831 86.3467 75.9302 89.5536 76.8151C92.7796 77.7052 96.0242 77.5353 98.8053 75.7655L98 74.5ZM109 11.5V13H151V11.5V10H109V11.5Z" fill="#2899AB"/>
</svg>