<svg width="60" height="60" viewBox="0 0 60 60" fill="none" xmlns="http://www.w3.org/2000/svg">
<path d="M23.75 49.25C16.875 45.8125 10.0016 36.75 6.25079 30.5C2.49995 24.25 10.3915 18.3906 15.0005 23C19.6095 27.6094 20.0005 28 20.0005 28V7.37501C20.0005 4.95876 21.9592 3 24.3755 3C26.7917 3 28.7505 4.95876 28.7505 7.37501V19.25C28.7505 16.8337 30.7092 14.875 33.1255 14.875C35.5417 14.875 37.5005 16.8337 37.5005 19.25V21.125C37.5005 18.7087 39.4593 16.75 41.8755 16.75C44.2917 16.75 46.2505 18.7087 46.2505 21.125V14.875C46.2505 12.4587 48.2093 10.5 50.6255 10.5C53.0417 10.5 55.0005 12.4587 55.0005 14.875V35.6437C55.0005 38.0154 54.4731 40.3799 53.0335 42.2645C51.4159 44.382 48.7724 47.1924 45 49.25C38.1249 53 30.625 52.6875 23.75 49.25Z" fill="#1F292F" stroke="#2F88FF" stroke-width="5" stroke-linecap="round" stroke-linejoin="round"/>
</svg>