<svg width="60" height="60" viewBox="0 0 60 60" fill="none" xmlns="http://www.w3.org/2000/svg">
<path d="M50 20H32.5C29.7386 20 27.5 22.2386 27.5 25V50C27.5 52.7614 29.7386 55 32.5 55H50C52.7614 55 55 52.7614 55 50V25C55 22.2386 52.7614 20 50 20Z" fill="#2CA9BC"/>
<path d="M25 52.5C25 53.163 24.7366 53.7989 24.2678 54.2678C23.7989 54.7366 23.163 55 22.5 55H10C8.67392 55 7.40215 54.4732 6.46447 53.5355C5.52678 52.5979 5 51.3261 5 50V10C5 8.67392 5.52678 7.40215 6.46447 6.46447C7.40215 5.52678 8.67392 5 10 5H45C46.3261 5 47.5979 5.52678 48.5355 6.46447C49.4732 7.40215 50 8.67392 50 10V15C50 15.663 49.7366 16.2989 49.2678 16.7678C48.7989 17.2366 48.163 17.5 47.5 17.5H32.5C30.5109 17.5 28.6032 18.2902 27.1967 19.6967C25.7902 21.1032 25 23.0109 25 25V52.5ZM34.3 20L35 23.1C35.1369 23.6547 35.4596 24.1458 35.9145 24.4915C36.3694 24.8372 36.9289 25.0166 37.5 25H45C45.5711 25.0166 46.1306 24.8372 46.5855 24.4915C47.0404 24.1458 47.3631 23.6547 47.5 23.1L48.2 20H34.3Z" fill="#2F88FF"/>
</svg>