<svg width="60" height="60" viewBox="0 0 60 60" fill="none" xmlns="http://www.w3.org/2000/svg">
<path d="M54 28.3682C54 23.6215 52.5924 18.9812 49.9553 15.0345C47.3182 11.0877 43.5701 8.01151 39.1846 6.19502C34.799 4.37851 29.9734 3.90328 25.3178 4.82935C20.6623 5.75539 16.386 8.04124 13.0295 11.3977C9.67303 14.7542 7.3872 19.0304 6.46114 23.686C5.5351 28.3416 6.01047 33.1673 7.82695 37.5526C9.64347 41.9381 12.7196 45.6864 16.6664 48.3235C20.6132 50.9606 25.2533 52.3682 30 52.3682" stroke="#2CA9BC" stroke-width="3.6" stroke-linecap="round" stroke-linejoin="round"/>
<path d="M6 28.3682H54" stroke="#2CA9BC" stroke-width="3.6" stroke-linecap="round" stroke-linejoin="round"/>
<path d="M30 52.3682C25.368 52.3682 21.6 41.6162 21.6 28.3682C21.6 15.1202 25.368 4.36816 30 4.36816C34.632 4.36816 38.4 15.1202 38.4 28.3682" stroke="#2CA9BC" stroke-width="3.6" stroke-linecap="round" stroke-linejoin="round"/>
<path d="M45.2859 52.0562C49.9251 52.0562 53.6859 48.2954 53.6859 43.6562C53.6859 39.017 49.9251 35.2562 45.2859 35.2562C40.6467 35.2562 36.8859 39.017 36.8859 43.6562C36.8859 48.2954 40.6467 52.0562 45.2859 52.0562Z" stroke="#2CA9BC" stroke-width="3.6" stroke-linecap="round" stroke-linejoin="round"/>
<path d="M56.3996 54.7685L51.2156 49.6085" stroke="#2CA9BC" stroke-width="3.6" stroke-linecap="round" stroke-linejoin="round"/>
</svg>