<svg width="50" height="54" viewBox="0 0 50 54" fill="none" xmlns="http://www.w3.org/2000/svg">
<path d="M19.7031 44.8487C19.8672 44.5293 20.0195 44.1976 20.1719 43.866C20.8633 42.4287 21.5781 40.9424 22.4805 39.5912C22.2109 38.1294 22.3867 36.7781 22.9961 35.6603C23.2422 35.1935 23.5586 34.8004 23.8516 34.4073C24.2383 33.916 24.5898 33.4492 24.7305 32.9578C24.9883 32.0734 24.5547 31.103 24.0742 30.4888C23.4414 29.6903 22.5273 29.1007 21.6484 28.5356C19.4805 27.1475 17.3125 25.7472 15.1563 24.3591C14.2188 23.7572 13.1641 23.0816 12.3203 22.1234C12.0039 21.7672 11.7344 21.3864 11.5234 20.9933V45.3032H9.88281C5.42969 45.3032 1.79688 49.0743 1.73828 53.7299V53.9142H7.03516C7.03516 53.5703 7.23438 53.2509 7.5625 53.1157C7.92578 52.9683 8.32422 52.8332 8.72266 52.7227C9.4375 52.5261 10.1641 52.3664 10.8672 52.219C12.3789 51.8996 13.8086 51.5925 15.0625 50.8555C17.1836 49.6025 18.543 47.2318 19.7031 44.8487Z" fill="#2CA9BC"/>
<path d="M15.9999 22.8973C18.1679 24.2977 20.3358 25.6858 22.5038 27.0738C23.453 27.688 24.5311 28.3759 25.3397 29.3955C26.3241 30.6362 26.6757 32.1471 26.3007 33.4492C26.0663 34.2722 25.5624 34.9233 25.1171 35.4883C24.8475 35.8323 24.6014 36.1639 24.4139 36.4956C24.2264 36.8396 24.1093 37.2204 24.0389 37.638C24.0624 37.6134 24.0858 37.5889 24.1093 37.5766C25.5155 36.1762 27.2264 35.2304 28.8671 34.3091C30.4843 33.4123 32.0194 32.5648 33.2499 31.3364C35.1132 29.4815 36.1679 26.7053 36.0741 23.88C36.0155 22.2585 35.5233 19.9615 34.2929 18.3891C34.1639 18.2294 34.1054 18.0329 34.1054 17.8486H33.121L24.9999 26.8159L17.535 18.5979L16.8788 17.8732H12.5897C12.5897 17.9469 12.578 18.0206 12.5546 18.1066C12.5194 18.2294 12.5077 18.3523 12.496 18.4751C12.4491 19.2858 12.8124 20.1948 13.5038 20.981C14.1952 21.7426 15.1093 22.3322 15.9999 22.8973Z" fill="#2CA9BC"/>
<path d="M39.2969 50.7572C38.3242 50.5238 37.3164 50.3396 36.332 50.1676C34.0117 49.7499 31.6094 49.3077 29.4062 48.2022C27.0508 47.0229 25.0117 45.0821 23.6641 42.7481C23.4648 42.4042 23.2891 42.0602 23.1367 41.704C22.5977 42.6498 22.1172 43.6571 21.6367 44.6398C21.4844 44.9715 21.3203 45.3032 21.1562 45.6348C19.9492 48.1285 18.3672 50.8678 15.8242 52.3541C14.3594 53.214 12.7305 53.558 11.1602 53.9019C11.125 53.9142 11.0898 53.9142 11.0547 53.9265H45.4375C45.1211 53.5948 44.7578 53.2509 44.3594 52.956C43.0352 51.9733 41.3828 51.2609 39.2969 50.7572Z" fill="#2CA9BC"/>
<path d="M40.1406 45.3155H38.5V17.8609H35.957C37.1641 19.7158 37.668 22.0989 37.7266 23.8309C37.8438 27.1353 36.5898 30.4151 34.3984 32.5893C32.9922 33.9897 31.293 34.9233 29.6523 35.8323C28.0234 36.729 26.5 37.5766 25.2461 38.8173C24.9063 39.1612 24.5781 39.5297 24.2617 39.9597C24.4492 40.5861 24.7188 41.2372 25.0703 41.8391C26.2539 43.8905 28.0469 45.598 30.1094 46.6298C32.1133 47.6371 34.293 48.0302 36.6133 48.4601C37.6094 48.6444 38.6523 48.8287 39.6602 49.0743C41.957 49.6271 43.8086 50.4256 45.3086 51.5311C46.082 52.1085 46.7148 52.7964 47.1836 53.3369C47.3242 53.4965 47.3945 53.7054 47.3945 53.9142H48.2852V53.7422C48.2266 49.0866 44.5938 45.3155 40.1406 45.3155Z" fill="#2CA9BC"/>
<path d="M9.85938 43.5957V7.78809C4.51562 7.78809 0.167969 12.284 0.0742188 17.8732V18.0452V53.4474V53.8528C0.0742188 53.7177 0.074219 53.5825 0.0859378 53.4474C0.285157 47.9688 4.58594 43.5957 9.85938 43.5957Z" fill="#2CA9BC"/>
<path d="M49.9258 18.0206V17.8609C49.832 12.284 45.4844 7.7758 40.1406 7.7758V43.5834C45.4961 43.5834 49.8438 48.0916 49.9258 53.6685C49.9258 53.7177 49.9258 53.7791 49.9258 53.8405V53.6685V18.0452C49.9258 18.0329 49.9258 18.0329 49.9258 18.0206Z" fill="#2CA9BC"/>
<path d="M18.7187 17.4063L19.1289 17.8608L24.9883 24.3222L30.8477 17.8608L31.2578 17.4063L32.3945 16.1534C33.6953 14.4582 34.4687 12.2962 34.4687 9.94997C34.4687 4.45906 30.2148 0 24.9766 0C19.7383 0 15.4844 4.45906 15.4844 9.94997C15.4844 12.2962 16.2578 14.4582 17.5586 16.1534L18.7187 17.4063ZM25 5.82258C27.168 5.82258 28.9375 7.66516 28.9375 9.94997C28.9375 12.2348 27.168 14.0651 25 14.0651C22.832 14.0651 21.0625 12.2225 21.0625 9.93769C21.0625 7.65288 22.832 5.82258 25 5.82258Z" fill="#2CA9BC"/>
</svg>
